# xmcd CD database file
#
# Track frame offsets:
#	150
#	14275
#	27062
#	41247
#
# Disc length: 737 seconds
#
# Revision: 0
# Processed by: cddbd v1.5PL3 Copyright (c) Steve Scherf et al.
# Submitted via: CDex 1.51
#
DISCID=2702df04
DTITLE=CASCADE - Dance Capriccio
DYEAR=1999
DGENRE=Rock
TTITLE0=Dance Capriccio
TTITLE1=Dance Capriccio -Arcade版- (8bit Mix)
TTITLE2=スナック　ボンボン
TTITLE3=Dance Caproccio(Instrumental)
EXTD=YEAR: 1999
EXTT0=
EXTT1=
EXTT2=
EXTT3=
PLAYORDER=
